<svg id="Calque_1" data-name="Calque 1" xmlns="http://www.w3.org/2000/svg" viewBox="0 0 1500 1500"><defs><style>.cls-1{fill:none;stroke:#96a5cd;stroke-width:20px;}.cls-2{fill:#96a5cd;}</style></defs><g id="Calque_1-2" data-name="Calque 1-2"><path id="Tracé_1" data-name="Tracé 1" class="cls-1" d="M586.92,253.08l-135.1,394a3.5,3.5,0,0,0,.51,3.22l301.73,406.26a3.5,3.5,0,0,0,5.66-.06l288.06-406.27a3.51,3.51,0,0,0,.48-3.06L926.84,253.69a3.5,3.5,0,0,0-6.65-.12l-160,459.32a3.5,3.5,0,0,1-6.61,0L593.53,253.07A3.5,3.5,0,0,0,586.92,253.08Z"/><path id="Tracé_2" data-name="Tracé 2" class="cls-1" d="M451.23,648.87,754.73,412a3.5,3.5,0,0,1,4.37,0l289.67,236.88"/></g><g id="Calque_1-2-2" data-name="Calque 1-2"><path class="cls-2" d="M633,465.61,526.9,548.45a3.5,3.5,0,0,1-5.47-3.89l65.72-191.69a3.5,3.5,0,0,1,6.62,0Z"/><path class="cls-2" d="M976.8,547.94l-97-79.33L918.32,358a3.5,3.5,0,0,1,6.65.12l57.4,186.05A3.51,3.51,0,0,1,976.8,547.94Z"/></g><path class="cls-2" d="M570,1106.91c3-24.69,21.49-40,45.18-40a10.25,10.25,0,1,1,0,20.49c-11.64,0-20.48,6.62-22.89,19.47h22.89a10.16,10.16,0,0,1,10.25,10.25,10.29,10.29,0,0,1-10.25,10.24H591.7v72.49a11.18,11.18,0,0,1-11,11.24,11.06,11.06,0,0,1-11-11.24V1127.4h-7.23a10.16,10.16,0,0,1-10.24-10.24,10,10,0,0,1,10.24-10.25Z"/><path class="cls-2" d="M641.3,1116.15a11,11,0,0,1,22.09,0v49c0,16.86,10.24,25.7,23.09,25.7s23.09-8.84,23.09-25.7v-49a10.89,10.89,0,0,1,11-11,11,11,0,0,1,11,11v48.19c0,28.72-19.88,47-45.18,47s-45.18-18.27-45.18-47Z"/><path class="cls-2" d="M760.17,1198.48v-82.33a11,11,0,0,1,22.09,0v56l53.22-63.45a9.57,9.57,0,0,1,7.63-3.61c5.82,0,10.44,4.21,10.44,10a9.33,9.33,0,0,1-2.41,6.62l-103.82,123.9a9.87,9.87,0,0,1-7.63,3.61c-6,0-10.64-4.22-10.64-10a10.31,10.31,0,0,1,2.41-6.62Z"/><path class="cls-2" d="M868.4,1116.15a11,11,0,0,1,22.09,0v49c0,16.86,10.24,25.7,23.1,25.7s23.09-8.84,23.09-25.7v-49a10.89,10.89,0,0,1,11-11,11,11,0,0,1,11,11v48.19c0,28.72-19.88,47-45.18,47s-45.19-18.27-45.19-47Z"/><path class="cls-2" d="M817.92,1242.11a1.78,1.78,0,0,1,1.57.83,3.89,3.89,0,0,0,3.26,2.15,2.28,2.28,0,0,0,2.36-2.24c0-1.69-1.57-2.35-3.51-3-2.61-.91-5.54-2-5.54-6.29a6.4,6.4,0,0,1,6.69-6.28c3.52,0,6.74,2.15,6.74,4.75a2,2,0,0,1-2.11,2,1.42,1.42,0,0,1-1.32-.75,4.54,4.54,0,0,0-3.31-2,2.21,2.21,0,0,0-2.31,2.23c0,1.7,1.74,2.23,3.84,2.94,2.53.78,5.38,2.11,5.38,6.24a6.71,6.71,0,0,1-6.91,6.45c-3.67,0-6.9-2.4-6.9-5A2.08,2.08,0,0,1,817.92,1242.11Z"/><path class="cls-2" d="M837,1229.79a2.09,2.09,0,0,1,2.11-2.11h1.49v-3.1a2.27,2.27,0,0,1,4.54,0v3.1H850a2.09,2.09,0,0,1,2.11,2.11,2.12,2.12,0,0,1-2.11,2.11h-4.84v7.48c0,3.64,2,5.5,4.84,5.5a2.13,2.13,0,0,1,0,4.26c-5.33,0-9.38-3.76-9.38-9.76v-7.48h-1.49A2.12,2.12,0,0,1,837,1229.79Z"/><path class="cls-2" d="M861.05,1229.58a2.27,2.27,0,0,1,4.54,0v10.09c0,3.47,2.11,5.29,4.76,5.29s4.75-1.82,4.75-5.29v-10.09a2.24,2.24,0,0,1,2.27-2.27,2.27,2.27,0,0,1,2.28,2.27v9.92c0,5.92-4.09,9.68-9.3,9.68s-9.3-3.76-9.3-9.68Z"/><path class="cls-2" d="M906.92,1246.62a10.29,10.29,0,0,1-6.87,2.56c-5.95,0-10.45-4.84-10.45-11s4.5-11,10.45-11a10.13,10.13,0,0,1,6.87,2.6v-8.14a2.27,2.27,0,1,1,4.54,0v25.09a2.27,2.27,0,1,1-4.54,0Zm0-8.4v-.29a6.91,6.91,0,1,0,0,.29Z"/><path class="cls-2" d="M921.91,1222.22a2.69,2.69,0,0,1,5.37,0,2.69,2.69,0,1,1-5.37,0Zm.41,7.36a2.28,2.28,0,0,1,4.55,0v17.24a2.28,2.28,0,1,1-4.55,0Z"/><path class="cls-2" d="M936.86,1238.22a11,11,0,1,1,10.95,11A10.76,10.76,0,0,1,936.86,1238.22Zm17.32,0a6.38,6.38,0,1,0-6.37,6.74A6.49,6.49,0,0,0,954.18,1238.22Z"/></svg>